<svg width="64" height="64" viewBox="0 0 64 64" fill="none" xmlns="http://www.w3.org/2000/svg">
<path d="M32 52.7802C27.987 52.7802 24.0641 51.5902 20.7274 49.3607C17.3908 47.1312 14.7902 43.9624 13.2545 40.2549C11.7188 36.5473 11.3169 32.4677 12.0998 28.5318C12.8827 24.5959 14.8152 20.9806 17.6528 18.143C20.4904 15.3054 24.1057 13.373 28.0416 12.5901C31.9775 11.8072 36.0571 12.209 39.7646 13.7447C43.4721 15.2804 46.641 17.881 48.8705 21.2177C51.1 24.5544 52.29 28.4772 52.29 32.4902C52.2847 37.8698 50.1453 43.0276 46.3413 46.8316C42.5374 50.6355 37.3796 52.7749 32 52.7802ZM32 14.2002C28.3825 14.2002 24.8464 15.2729 21.8386 17.2826C18.8308 19.2924 16.4865 22.1489 15.1022 25.4909C13.7179 28.833 13.3557 32.5105 14.0614 36.0584C14.7671 39.6063 16.5091 42.8653 19.067 45.4232C21.6249 47.9811 24.8839 49.723 28.4318 50.4288C31.9797 51.1345 35.6572 50.7723 38.9992 49.388C42.3413 48.0036 45.1978 45.6594 47.2076 42.6516C49.2173 39.6438 50.29 36.1076 50.29 32.4902C50.282 27.6418 48.3525 22.9943 44.9242 19.566C41.4959 16.1377 36.8483 14.2081 32 14.2002Z" fill="#F16754"/>
<path d="M32 17.9198C31.7348 17.9198 31.4804 17.8144 31.2929 17.6269C31.1054 17.4394 31 17.185 31 16.9198V10.2798C31 10.0146 31.1054 9.76021 31.2929 9.57268C31.4804 9.38514 31.7348 9.27979 32 9.27979C32.2652 9.27979 32.5196 9.38514 32.7071 9.57268C32.8946 9.76021 33 10.0146 33 10.2798V16.9198C33 17.0511 32.9741 17.1811 32.9239 17.3025C32.8736 17.4238 32.8 17.534 32.7071 17.6269C32.6142 17.7198 32.504 17.7934 32.3827 17.8437C32.2614 17.8939 32.1313 17.9198 32 17.9198Z" fill="#F16754"/>
<path d="M32 54.7201C31.7348 54.7201 31.4804 54.6147 31.2929 54.4272C31.1054 54.2396 31 53.9853 31 53.7201V47.0801C31 46.8149 31.1054 46.5605 31.2929 46.373C31.4804 46.1854 31.7348 46.0801 32 46.0801C32.2652 46.0801 32.5196 46.1854 32.7071 46.373C32.8946 46.5605 33 46.8149 33 47.0801V53.7201C33 53.9853 32.8946 54.2396 32.7071 54.4272C32.5196 54.6147 32.2652 54.7201 32 54.7201Z" fill="#F16754"/>
<path d="M54.0701 33.4902H47.4301C47.1648 33.4902 46.9105 33.3849 46.7229 33.1973C46.5354 33.0098 46.4301 32.7555 46.4301 32.4902C46.4301 32.225 46.5354 31.9707 46.7229 31.7831C46.9105 31.5956 47.1648 31.4902 47.4301 31.4902H54.0701C54.3353 31.4902 54.5896 31.5956 54.7772 31.7831C54.9647 31.9707 55.0701 32.225 55.0701 32.4902C55.0701 32.7555 54.9647 33.0098 54.7772 33.1973C54.5896 33.3849 54.3353 33.4902 54.0701 33.4902Z" fill="#F16754"/>
<path d="M16.39 32.79H9.75C9.48478 32.79 9.23043 32.6847 9.04289 32.4971C8.85536 32.3096 8.75 32.0553 8.75 31.79C8.75 31.5248 8.85536 31.2705 9.04289 31.0829C9.23043 30.8954 9.48478 30.79 9.75 30.79H16.39C16.6552 30.79 16.9096 30.8954 17.0971 31.0829C17.2846 31.2705 17.39 31.5248 17.39 31.79C17.39 32.0553 17.2846 32.3096 17.0971 32.4971C16.9096 32.6847 16.6552 32.79 16.39 32.79Z" fill="#F16754"/>
<path d="M32 35.3401C31.4363 35.3401 30.8853 35.173 30.4167 34.8598C29.948 34.5467 29.5827 34.1016 29.367 33.5808C29.1513 33.06 29.0948 32.487 29.2048 31.9341C29.3148 31.3813 29.5862 30.8735 29.9848 30.4749C30.3834 30.0763 30.8912 29.8049 31.444 29.6949C31.9969 29.5849 32.5699 29.6414 33.0907 29.8571C33.6114 30.0728 34.0566 30.4381 34.3697 30.9068C34.6829 31.3754 34.85 31.9265 34.85 32.4901C34.8474 33.2452 34.5463 33.9686 34.0124 34.5025C33.4785 35.0364 32.7551 35.3375 32 35.3401ZM32 31.6401C31.8319 31.6401 31.6676 31.69 31.5278 31.7834C31.388 31.8768 31.2791 32.0095 31.2147 32.1649C31.1504 32.3202 31.1336 32.4911 31.1664 32.656C31.1992 32.8208 31.2801 32.9723 31.399 33.0912C31.5179 33.2101 31.6693 33.291 31.8342 33.3238C31.9991 33.3566 32.17 33.3398 32.3253 33.2754C32.4806 33.2111 32.6134 33.1022 32.7068 32.9624C32.8002 32.8226 32.85 32.6583 32.85 32.4901C32.85 32.2647 32.7605 32.0485 32.6011 31.8891C32.4417 31.7297 32.2255 31.6401 32 31.6401Z" fill="#F16754"/>
</svg>
