<svg width="30" height="10" viewBox="0 0 30 10" fill="none" xmlns="http://www.w3.org/2000/svg">
<path opacity="0.62" d="M21.6667 10C24.0599 10 26 7.76142 26 5C26 2.23858 24.0599 -8.48044e-08 21.6667 -1.89416e-07L4.33333 -9.4708e-07C1.9401 -1.05169e-06 -9.78513e-08 2.23858 -2.18557e-07 5C-3.39263e-07 7.76142 1.9401 10 4.33333 10L21.6667 10Z" fill="url(#paint0_linear_14_18)"/>
<path d="M30 5C30 3.51775 29.2377 2.27957 28.1785 1.38387C27.1194 0.488172 25.613 -1.91763e-07 24 -2.62268e-07L21.3333 -3.78832e-07C20.597 -4.1102e-07 20 0.447715 20 1L20 9C20 9.55227 20.597 10 21.3333 10L24 10C25.613 10 27.1194 9.51182 28.1785 8.61613C29.2377 7.72043 30 6.48225 30 5Z" fill="url(#paint1_linear_14_18)"/>
<path d="M0 1C0 0.447716 0.447715 0 1 0H7V10H1C0.447715 10 0 9.55228 0 9V1Z" fill="url(#paint2_linear_14_18)"/>
<defs>
<linearGradient id="paint0_linear_14_18" x1="14" y1="0" x2="14" y2="10" gradientUnits="userSpaceOnUse">
<stop/>
<stop offset="1" stop-color="#616060"/>
</linearGradient>
<linearGradient id="paint1_linear_14_18" x1="23.5" y1="-6.16e-08" x2="26.0103" y2="9.32414" gradientUnits="userSpaceOnUse">
<stop stop-color="#5C4F04"/>
<stop offset="1" stop-color="#FFEA7B"/>
</linearGradient>
<linearGradient id="paint2_linear_14_18" x1="3.5" y1="0" x2="3.5" y2="10" gradientUnits="userSpaceOnUse">
<stop/>
<stop offset="1" stop-color="#656262"/>
</linearGradient>
</defs>
</svg>
